<svg width="51" height="50" viewBox="0 0 51 50" fill="none" xmlns="http://www.w3.org/2000/svg">
<g id="pajamas:close">
<path id="Vector" fill-rule="evenodd" clip-rule="evenodd" d="M15.4099 13.5032C15.0544 13.172 14.5843 12.9917 14.0986 13.0003C13.6128 13.0089 13.1493 13.2056 12.8058 13.5492C12.4623 13.8927 12.2655 14.3562 12.2569 14.8419C12.2483 15.3277 12.4287 15.7978 12.7599 16.1532L22.0599 25.4532L12.7599 34.7532C12.5756 34.9249 12.4279 35.1319 12.3254 35.3619C12.2229 35.5919 12.1678 35.8402 12.1634 36.0919C12.1589 36.3437 12.2052 36.5938 12.2995 36.8272C12.3939 37.0607 12.5342 37.2728 12.7123 37.4508C12.8903 37.6289 13.1024 37.7692 13.3359 37.8635C13.5693 37.9578 13.8194 38.0042 14.0712 37.9997C14.3229 37.9953 14.5712 37.9402 14.8012 37.8377C15.0312 37.7352 15.2382 37.5874 15.4099 37.4032L24.7099 28.1032L34.0099 37.4032C34.1815 37.5874 34.3885 37.7352 34.6185 37.8377C34.8485 37.9402 35.0968 37.9953 35.3486 37.9997C35.6003 38.0042 35.8504 37.9578 36.0839 37.8635C36.3173 37.7692 36.5294 37.6289 36.7075 37.4508C36.8855 37.2728 37.0259 37.0607 37.1202 36.8272C37.2145 36.5938 37.2608 36.3437 37.2563 36.0919C37.2519 35.8402 37.1968 35.5919 37.0943 35.3619C36.9918 35.1319 36.8441 34.9249 36.6599 34.7532L27.3599 25.4532L36.6599 16.1532C36.9911 15.7978 37.1714 15.3277 37.1628 14.8419C37.1542 14.3562 36.9574 13.8927 36.6139 13.5492C36.2704 13.2056 35.8069 13.0089 35.3212 13.0003C34.8354 12.9917 34.3653 13.172 34.0099 13.5032L24.7099 22.8032L15.4099 13.5032Z" fill="#007754"/>
</g>
</svg>
