<svg width="50" height="50" viewBox="0 0 50 50" fill="none" xmlns="http://www.w3.org/2000/svg">
<g id="eva:menu-fill">
<g id="evaMenuFill0">
<g id="evaMenuFill1">
<g id="evaMenuFill2">
<path id="Vector" d="M41.7708 22.9165H8.22917C7.1361 22.9165 6.25 23.8026 6.25 24.8957V25.104C6.25 26.1971 7.1361 27.0832 8.22917 27.0832H41.7708C42.8639 27.0832 43.75 26.1971 43.75 25.104V24.8957C43.75 23.8026 42.8639 22.9165 41.7708 22.9165Z" fill="#007754"/>
<path id="Vector_2" d="M41.7708 33.3335H8.22917C7.1361 33.3335 6.25 34.2196 6.25 35.3127V35.521C6.25 36.6141 7.1361 37.5002 8.22917 37.5002H41.7708C42.8639 37.5002 43.75 36.6141 43.75 35.521V35.3127C43.75 34.2196 42.8639 33.3335 41.7708 33.3335Z" fill="#007754"/>
<path id="Vector_3" d="M41.7708 12.5H8.22917C7.1361 12.5 6.25 13.3861 6.25 14.4792V14.6875C6.25 15.7806 7.1361 16.6667 8.22917 16.6667H41.7708C42.8639 16.6667 43.75 15.7806 43.75 14.6875V14.4792C43.75 13.3861 42.8639 12.5 41.7708 12.5Z" fill="#007754"/>
</g>
</g>
</g>
</g>
</svg>
